<svg width="605" height="179" viewBox="0 0 605 179" fill="none" xmlns="http://www.w3.org/2000/svg">
<path fill-rule="evenodd" clip-rule="evenodd" d="M225.535 7.12969C227.343 2.72495 233.666 3.0862 234.966 7.66849L241.395 30.3371C243.18 36.6284 252.115 36.4392 253.635 30.078C254.133 27.9907 256.931 27.6232 257.947 29.5116L296.271 100.785C300.199 108.09 311.024 106.662 312.942 98.5852L314.61 91.5656C315.361 88.4022 318.859 86.7785 321.743 88.2548L358.764 107.209C362.79 109.27 367.713 108.012 370.27 104.268L385.375 82.1484C386.404 80.642 388.678 80.8532 389.415 82.5237C391.326 86.8587 397.117 87.6393 400.097 83.9638L421.303 57.8122C423.49 55.1145 427.678 55.4143 429.463 58.3965L471.59 128.777C473.626 132.179 478.777 131.174 479.4 127.255C479.415 127.163 479.443 127.134 479.456 127.122C479.479 127.099 479.525 127.071 479.592 127.06C479.659 127.048 479.711 127.059 479.74 127.072C479.757 127.08 479.793 127.097 479.837 127.179L505.058 173.565C507.556 178.158 513.4 179.669 517.792 176.856L540.55 162.282C542.184 161.236 544.358 161.818 545.257 163.542C547.306 167.472 552.328 168.692 555.937 166.137L582.857 147.077C584.924 145.614 587.754 145.932 589.448 147.818L601.764 161.531L604.733 158.837L592.417 145.125C589.367 141.729 584.275 141.156 580.554 143.791L553.633 162.85C552 164.006 549.727 163.454 548.8 161.676C546.813 157.866 542.01 156.58 538.401 158.891L515.643 173.465C513.202 175.028 509.956 174.189 508.568 171.637L483.348 125.251C481.411 121.69 476.087 122.614 475.45 126.621C475.436 126.708 475.409 126.738 475.395 126.751C475.372 126.774 475.327 126.802 475.263 126.815C475.199 126.827 475.148 126.818 475.118 126.805C475.1 126.798 475.063 126.781 475.018 126.705L432.891 56.3241C429.678 50.9562 422.14 50.4165 418.202 55.2724L396.996 81.424C395.901 82.7745 393.774 82.4876 393.072 80.895C391.067 76.3482 384.877 75.7731 382.077 79.8734L366.972 101.993C365.551 104.073 362.817 104.772 360.58 103.627L323.558 84.6725C318.368 82.0152 312.072 84.9379 310.719 90.6321L309.052 97.6516C307.986 102.139 301.972 102.932 299.79 98.8739L261.466 27.6003C258.706 22.4673 251.1 23.4662 249.745 29.1396C249.186 31.48 245.899 31.5496 245.242 29.2349L238.813 6.56637C236.473 -1.68177 225.092 -2.33201 221.838 5.59652L187.896 88.2876C186.926 90.6503 183.563 90.5499 182.734 88.1336C180.978 83.0126 174.258 81.9147 170.978 86.213L136.873 130.914C134.448 134.092 129.478 133.281 128.178 129.495L107.021 67.8649C104.24 59.7641 92.8539 59.7254 89.9816 67.7738C85.424 80.5443 80.3713 94.5001 76.46 104.858C74.7989 109.257 73.3507 112.988 72.2369 115.699C72.1853 115.562 72.1325 115.424 72.0787 115.284C71.1744 112.939 69.9341 110.151 68.5729 107.272C65.8477 101.51 62.5841 95.2758 60.4084 91.2904L60.3884 91.2537L37.7905 53.6584C35.9661 50.6233 32.5457 48.9395 29.0414 49.3514L11.0823 51.4628C8.2041 51.8012 5.66412 53.5117 4.25818 56.0584L0 63.7716L3.49768 65.7221L7.75586 58.0089C8.53693 56.5941 9.948 55.6438 11.547 55.4558L29.5062 53.3444C31.4529 53.1156 33.3532 54.051 34.3668 55.7372L56.9215 93.2607C59.072 97.2016 62.2859 103.343 64.9602 108.998C66.3027 111.837 67.4959 114.525 68.3491 116.737C68.7761 117.844 69.1074 118.805 69.3293 119.59C69.5621 120.414 69.6334 120.904 69.6334 121.126C69.6334 121.206 69.6361 121.306 69.6472 121.418C69.652 121.467 69.6583 121.517 69.6665 121.569C69.69 121.717 69.7513 122.029 69.9489 122.361C70.173 122.738 70.6459 123.238 71.423 123.35C72.1021 123.447 72.6078 123.181 72.8176 123.05C73.2149 122.801 73.4585 122.462 73.5367 122.352L73.5384 122.35C73.6602 122.18 73.772 121.994 73.8703 121.819C74.253 121.138 74.7613 120.022 75.3521 118.629C76.5534 115.797 78.2396 111.475 80.1996 106.285C84.1243 95.8913 89.1869 81.9077 93.7467 69.1311C95.35 64.6385 101.697 64.682 103.24 69.1761L124.397 130.806C126.737 137.622 135.682 139.081 140.047 133.36L174.152 88.6594C175.491 86.9043 178.236 87.3526 178.953 89.4436C180.982 95.3613 189.219 95.607 191.594 89.8207L225.535 7.12969Z" fill="#2F4CDD"/>
</svg>
